<svg height="316.227766" viewBox="0 0 25.069 25.071" width="316.227766" xmlns="http://www.w3.org/2000/svg" xmlns:xlink="http://www.w3.org/1999/xlink"><symbol id="a" overflow="visible"/><symbol id="b" overflow="visible"/><symbol id="c" overflow="visible"/><symbol id="d" overflow="visible"/><symbol id="e" overflow="visible"/><symbol id="f" overflow="visible"/><symbol id="g" overflow="visible"/><symbol id="h" overflow="visible"/><clipPath id="i"><path d="m47.219 46.672h70.312v70.316h-70.312z"/></clipPath><g transform="translate(-427.09 -232.25)"><g transform="matrix(.35278 0 0 .35278 -198.35 261.7)"><use fill="#211e1e" height="100%" width="100%" x="97.953499" xlink:href="#c" y="116.1893"/><use fill="#fff" height="100%" width="100%" x="178.0647" xlink:href="#c" y="533.00531"/><use fill="#fff" height="100%" width="100%" x="410.80081" xlink:href="#b" y="258.99329"/><use fill="#fff" height="100%" width="100%" x="390.1048" xlink:href="#b" y="270.88931"/><use fill="#fff" height="100%" width="100%" x="435.56879" xlink:href="#b" y="270.88931"/><use fill="#fff" height="100%" width="100%" x="404.29681" xlink:href="#b" y="294.6893"/><use fill="#fff" height="100%" width="100%" x="465.08081" xlink:href="#b" y="306.5853"/><use fill="#fff" height="100%" width="100%" x="404.29681" xlink:href="#b" y="330.38531"/><use fill="#fff" height="100%" width="100%" x="470.65601" xlink:href="#b" y="342.28131"/><use fill="#fff" height="100%" width="100%" x="377.95279" xlink:href="#b" y="354.17731"/><use fill="#fff" height="100%" width="100%" x="437.1608" xlink:href="#b" y="354.17731"/><use fill="#fff" height="100%" width="100%" x="440.34399" xlink:href="#b" y="377.97729"/><use fill="#fff" height="100%" width="100%" x="377.95279" xlink:href="#b" y="389.87329"/><use fill="#fff" height="100%" width="100%" x="436.25681" xlink:href="#b" y="389.87329"/><use fill="#fff" height="100%" width="100%" x="503.31201" xlink:href="#b" y="413.67331"/><use fill="#fff" height="100%" width="100%" x="500.67999" xlink:href="#b" y="437.4733"/><use fill="#fff" height="100%" width="100%" x="458.672" xlink:href="#b" y="461.27328"/><use fill="#fff" height="100%" width="100%" x="625.87152" xlink:href="#b" y="258.99329"/><use fill="#fff" height="100%" width="100%" x="720.75873" xlink:href="#b" y="270.88931"/><use fill="#fff" height="100%" width="100%" x="625.87152" xlink:href="#b" y="294.6893"/><use fill="#fff" height="100%" width="100%" x="711.05469" xlink:href="#b" y="306.5853"/><use fill="#fff" height="100%" width="100%" x="599.52753" xlink:href="#b" y="318.48129"/><use fill="#fff" height="100%" width="100%" x="639.3595" xlink:href="#b" y="318.48129"/><use fill="#fff" height="100%" width="100%" x="599.52753" xlink:href="#b" y="330.37729"/><use fill="#fff" height="100%" width="100%" x="659.8075" xlink:href="#b" y="330.37729"/><use fill="#fff" height="100%" width="100%" x="599.52753" xlink:href="#b" y="342.27328"/><use fill="#fff" height="100%" width="100%" x="657.89551" xlink:href="#b" y="342.27328"/><use fill="#fff" height="100%" width="100%" x="599.52753" xlink:href="#b" y="354.16931"/><use fill="#fff" height="100%" width="100%" x="644.67151" xlink:href="#b" y="354.16931"/><use fill="#fff" height="100%" width="100%" x="599.52753" xlink:href="#b" y="366.06531"/><use fill="#fff" height="100%" width="100%" x="640.99152" xlink:href="#b" y="366.06531"/><use fill="#fff" height="100%" width="100%" x="749.44592" xlink:href="#b" y="389.8653"/><use fill="#fff" height="100%" width="100%" x="697.96667" xlink:href="#b" y="413.66531"/><use fill="#fff" height="100%" width="100%" x="688.99072" xlink:href="#a" y="437.4653"/><use fill="#fff" height="100%" width="100%" x="599.52753" xlink:href="#a" y="449.3613"/><use fill="#fff" height="100%" width="100%" x="697.54272" xlink:href="#b" y="449.3613"/><use fill="#fff" height="100%" width="100%" x="721.52588" xlink:href="#b" y="473.16129"/><use fill="#fff" height="100%" width="100%" x="671.17468" xlink:href="#b" y="496.9613"/></g><use fill="#211e1e" height="100%" transform="matrix(.35278 0 0 .35278 -132.79 304.61)" width="100%" x="545.15973" xlink:href="#d" y="59.527802"/><use fill="#211e1e" height="100%" transform="matrix(.35278 0 0 .35278 -132.79 304.61)" width="100%" x="806.57373" xlink:href="#d" y="71.434799"/><use fill="#fff" height="100%" transform="matrix(.35278 0 0 .35278 116.99 287.86)" width="100%" x="311.65179" xlink:href="#e" y="136.84399"/><use fill="#fff" height="100%" transform="matrix(.35278 0 0 .35278 210.68 445.83)" width="100%" x="482.08817" xlink:href="#f" y="268.85571"/><use fill="#fff" height="100%" transform="matrix(.35278 0 0 .35278 210.68 445.83)" width="100%" x="464.66891" xlink:href="#f" y="305.85767"/><use fill="#fff" height="100%" transform="matrix(.35278 0 0 .35278 210.68 445.83)" width="100%" x="491.97028" xlink:href="#g" y="263.87579"/><use fill="#fff" height="100%" transform="matrix(.35278 0 0 .35278 210.68 445.83)" width="100%" x="471.67435" xlink:href="#g" y="307.2019"/><use fill="#786854" height="100%" transform="matrix(.35278 0 0 .35278 410.56 215.91)" width="100%" x="255.7787" xlink:href="#h" y="246.93539"/><g clip-path="url(#i)" transform="matrix(.35278 0 0 .35278 410.56 215.91)"><path d="m112.75 46.672h-60.734c-2.6484 0-4.8008 2.1523-4.8008 4.7969v60.738c0 2.6445 2.1523 4.7969 4.8008 4.7969h60.734c2.6484 0 4.8008-2.1524 4.8008-4.7969v-60.738c0-2.6445-2.1523-4.7969-4.8008-4.7969m3.1445 65.535c0 1.7305-1.4141 3.1445-3.1445 3.1445h-60.734c-1.7305 0-3.1445-1.4141-3.1445-3.1445v-60.738c0-1.7266 1.4141-3.1406 3.1445-3.1406h60.734c1.7305 0 3.1445 1.4141 3.1445 3.1406z" fill="#fff"/></g><path d="m451.45 255.5c0 .61047-.49885 1.1093-1.1093 1.1093h-21.426c-.61047 0-1.1093-.49885-1.1093-1.1093v-21.426c0-.61047.49885-1.1093 1.1093-1.1093h21.426c.61048 0 1.1093.49885 1.1093 1.1093z" fill="#143878"/><path d="m442.48 252.74c.5333-.20395.8034-.58843.8034-1.2003 0-.0345-.003-.0675-.006-.1006-.0482-.80064-.67937-1.1934-1.4387-1.1934h-2.0602v4.0804h.96738v-1.469h.69453l.74827 1.469h1.0942l-.8034-1.5861m-.78824-.57464h-.94533v-1.2044h.94533c.37207 0 .59945.17363.59945.59531 0 .4079-.20946.6091-.59945.6091" fill="#fff"/><path d="m434.62 250.24h-1.101l-.67661 1.7859-.76206-1.327c-.14469-.25218-.50161-.45889-.79099-.45889h-.55122l1.6702 2.9366-.43546 1.1465h.57189c.29077 0 .61323-.22325.7152-.49472z" fill="#fff"/><path d="m437.54 252.55h-1.3849l.58015-1.531c.062-.16399.16261-.16399.22462-.001l.58015 1.5324m.26045.68627.41341 1.0928h1.0377l-1.3601-3.5884c-.10197-.27286-.42443-.49472-.7152-.49472h-1.1865l-1.5462 4.0831h.51814c.28664 0 .60359-.22325.70556-.49472l.22738-.59807h1.9058" fill="#fff"/><path d="m445.9 251.01c.062-.16261.16261-.16261.22324 0l.58153 1.531h-1.3863zm-.8406 2.2173h1.9044l.22737.59807c.10198.27147.4203.49472.70556.49472h.51952l-1.5475-4.0831h-1.1865c-.29077 0-.61185.22186-.7152.49472l-1.3588 3.5884h1.0363l.41341-1.0928" fill="#fff"/><path d="m433.77 238.71c0-2.4309 1.6068-3.9688 1.6068-3.9688.04-.0331.17088-.0276.27423-.0276h1.797c-.90538.79099-1.4718 2.7836-1.4718 3.9963 0 1.2085.56637 3.2012 1.4718 3.9977h-1.797c-.10335 0-.23426.006-.27423-.0276 0 0-1.6068-1.5393-1.6068-3.9701m9.3266 3.9701c.0441.0331.17088.0276.27975.0276h1.7956c-.91088-.79651-1.4773-2.7892-1.4773-3.9977 0-1.2127.56638-3.2053 1.4773-3.9963h-1.7956c-.10887 0-.23565-.006-.27975.0276 0 0-1.6026 1.5379-1.6026 3.9688 0 2.4322 1.6026 3.9701 1.6026 3.9701m-3.8599 0c.0441.0331.17088.0276.27974.0276h1.7901c-.90537-.79651-1.4759-2.7892-1.4759-3.9977 0-1.2127.57051-3.2053 1.4759-3.9963h-1.7901c-.10886 0-.23564-.006-.27974.0276 0 0-1.6027 1.5655-1.6027 3.9688s1.6027 3.9701 1.6027 3.9701m8.7822 3.1846c-.27423-.55949-.75241-1.5117-.84061-1.8342 0 0-.28663-.73036.48507-.85163.32798-.0482.5457-.28525.56224-.59669l-.004-.35829c-.003-.0524-.0427-.0937-.0951-.0978h-1.2761c-.022 0-.89572.0978-.90675 1.1631-.0262 1.819.0124 2.0616-.47542 2.1428-.0441-.004-.0786-.04-.0786-.0854 0-.0179.001-.0358.001-.0551 0-.96738-.78411-1.7515-1.7515-1.7515-.49196 0-.93569.20533-1.254.53193h-.001c-.0124.0193-.0441.0468-.0799.0468s-.0661-.0276-.0799-.0468c-.31833-.3266-.76206-.53193-1.254-.53193-.49334 0-.93707.20533-1.254.53193h-.001c-.0124.0193-.0441.0468-.0799.0468s-.0661-.0276-.0799-.0468c-.31833-.3266-.76206-.53193-1.254-.53193s-.93569.20533-1.254.53193h-.001c-.0124.0193-.0441.0468-.0799.0468s-.0661-.0276-.0799-.0468c-.31833-.3266-.76206-.53193-1.254-.53193-.96738 0-1.7515.78411-1.7515 1.7515 0 .0193.001.0358.001.0551 0 .0482-.0427.0868-.0909.0868-.49471-.0799-.45613-.31833-.48231-2.1442-.011-1.0652-.88608-1.1631-.90675-1.1631h-1.2761c-.0524.004-.0923.0455-.0951.0978l-.004.35829c.0152.31143.23426.54846.56086.59669.77308.12127.48645.85163.48645.85163-.0882.32246-.56638 1.2747-.84061 1.8342-.17639.36243-.53192 1.2568.0276 2.118.32384.50023.70831.966 2.0698.94533h12.594c1.367.0207 1.746-.4451 2.0698-.94533l-.001-.001c.55811-.86127.2012-1.7542.0262-2.1167m-12.387-1.6233c-.58015 0-1.0514.46991-1.0514 1.0501 0 .58153.47129 1.0514 1.0514 1.0514s1.0514-.46991 1.0514-1.0514c0-.58015-.47129-1.0501-1.0514-1.0501m8.0078 0c-.58015 0-1.0514.46991-1.0514 1.0501 0 .58153.47129 1.0514 1.0514 1.0514.58016 0 1.0501-.46991 1.0501-1.0514 0-.58015-.46991-1.0501-1.0501-1.0501m-5.3385 0c-.58015 0-1.0514.46991-1.0514 1.0501 0 .58153.47129 1.0514 1.0514 1.0514.58016 0 1.0501-.46991 1.0501-1.0514 0-.58015-.46991-1.0501-1.0501-1.0501m2.6693 0c-.58153 0-1.0514.46991-1.0514 1.0501 0 .58153.46991 1.0514 1.0514 1.0514.58016 0 1.0501-.46991 1.0501-1.0514 0-.58015-.46991-1.0501-1.0501-1.0501" fill="#fff" fill-rule="evenodd"/></g></svg>